<svg version="1.1" xmlns="http://www.w3.org/2000/svg" xmlns:xlink="http://www.w3.org/1999/xlink" width="57.05417" height="57.05417" viewBox="0,0,57.05417,57.05417"><defs><linearGradient x1="-206.05006" y1="311.3438" x2="-251.21776" y2="311.3768" gradientUnits="userSpaceOnUse" id="color-1"><stop offset="0" stop-color="#000000"/><stop offset="1" stop-color="#811150"/></linearGradient></defs><g transform="translate(-214.94507,-151.7508)"><g data-paper-data="{&quot;isPaintingLayer&quot;:true}" fill="none" fill-rule="nonzero" stroke="#ffffff" stroke-width="none" stroke-linecap="butt" stroke-linejoin="miter" stroke-miterlimit="10" stroke-dasharray="" stroke-dashoffset="0" font-family="none" font-weight="none" font-size="none" text-anchor="none" style="mix-blend-mode: normal"><path d="M215.52418,208.22585v-55.89594h55.89594v55.89594z" data-paper-data="{&quot;origPos&quot;:null}" fill="#ffffff" stroke-width="1.15823"/><path d="M238.83084,191.0809c0,0 -0.0265,-22.9255 -0.0341,-33.3375c-0.0019,-2.7273 2.2077,-4.9398 4.9347,-4.9418c2.7274,-0.002 4.9393,2.2072 4.9413,4.9346c0.0064,8.7294 0.0345,33.3107 0.0345,33.3107c0,0 1.669,-1.6515 9.2762,-9.2703c1.9273,-1.9301 5.0536,-1.9324 6.9832,-0.0051c1.9296,1.9282 1.9324,5.054 0.0051,6.9836c-6.1679,6.1779 -17.7038,17.7292 -17.7038,17.7292c-1.9272,1.9296 -5.054,1.9319 -6.9832,0.0051c0,0 -9.9689,-9.9539 -17.5877,-17.5616c-1.931,-1.9282 -1.9333,-5.0545 -0.0051,-6.9837c1.9268,-1.9301 5.054,-1.9324 6.9822,-0.0051c6.1797,6.1689 9.1567,9.1419 9.1567,9.1419z" data-paper-data="{&quot;origPos&quot;:null}" id="ID0.6278323931619525" fill="url(#color-1)" stroke-width="1.15823"/></g></g></svg>