<svg version="1.1" xmlns="http://www.w3.org/2000/svg" xmlns:xlink="http://www.w3.org/1999/xlink" width="52.16092" height="56.80313" viewBox="0,0,52.16092,56.80313"><defs><linearGradient x1="-207.74388" y1="49.2444" x2="-252.91158" y2="49.2114" gradientUnits="userSpaceOnUse" id="color-1"><stop offset="0" stop-color="#000000"/><stop offset="1" stop-color="#811150"/></linearGradient></defs><g transform="translate(-215.32147,-151.56259)"><g data-paper-data="{&quot;isPaintingLayer&quot;:true}" fill="none" fill-rule="nonzero" stroke="#ffffff" stroke-width="1.15823" stroke-linecap="butt" stroke-linejoin="miter" stroke-miterlimit="10" stroke-dasharray="" stroke-dashoffset="0" font-family="none" font-weight="none" font-size="none" text-anchor="none" style="mix-blend-mode: normal"><path d="M215.90059,207.28484v-55.14313h51.00269v55.14313z" data-paper-data="{&quot;origPos&quot;:null}" fill="#ffffff"/><path d="M227.98032,178.6492c-1.9282,1.9273 -5.0554,1.925 -6.9822,-0.0051c-1.9282,-1.9292 -1.9259,-5.0555 0.0051,-6.9837c7.6188,-7.6077 17.5877,-17.5616 17.5877,-17.5616c1.9292,-1.9268 5.056,-1.9245 6.9832,0.0051c0,0 11.5359,11.5513 17.7038,17.7292c1.9273,1.9296 1.9245,5.0554 -0.0051,6.9836c-1.9296,1.9273 -5.0559,1.925 -6.9832,-0.0051c-7.6072,-7.6188 -9.2762,-9.2703 -9.2762,-9.2703c0,0 -0.0281,24.5813 -0.0345,33.3107c-0.002,2.7274 -2.2139,4.9366 -4.9413,4.9346c-2.727,-0.002 -4.9366,-2.2145 -4.9347,-4.9418c0.0076,-10.412 0.0341,-33.3375 0.0341,-33.3375c0,0 -2.977,2.973 -9.1567,9.1419z" data-paper-data="{&quot;origPos&quot;:null}" id="ID0.6278323931619525" fill="url(#color-1)"/></g></g></svg>